<?xml version="1.0" encoding="UTF-8" standalone="no"?>
<svg
   xmlns:dc="http://purl.org/dc/elements/1.1/"
   xmlns:cc="http://creativecommons.org/ns#"
   xmlns:rdf="http://www.w3.org/1999/02/22-rdf-syntax-ns#"
   xmlns:svg="http://www.w3.org/2000/svg"
   xmlns="http://www.w3.org/2000/svg"
   viewBox="0 0 1066.6667 1066.6667"
   height="1066.6667"
   width="1066.6667"
   xml:space="preserve"
   id="svg2"
   version="1.1"><metadata
     id="metadata8"><rdf:RDF><cc:Work
         rdf:about=""><dc:format>image/svg+xml</dc:format><dc:type
           rdf:resource="http://purl.org/dc/dcmitype/StillImage" /></cc:Work></rdf:RDF></metadata><defs
     id="defs6" /><g
     transform="matrix(1.3333333,0,0,-1.3333333,0,1066.6667)"
     id="g10"><g
       transform="scale(0.1)"
       id="g12"><path
         id="path14"
         style="fill:#ffffff;fill-opacity:1;fill-rule:nonzero;stroke:none"
         d="m 3126.02,6255.12 1.05,0.1 c 12.32,0 22.31,-9.99 22.31,-22.31 0,-12.33 -9.99,-22.32 -22.31,-22.32 -12.33,0 -22.32,9.99 -22.32,22.32 0,1.85 0.29,3.62 0.72,5.34 -29.31,-24.67 -47.64,-42.54 -47.64,-42.54 50.35,-50.36 96.02,-71.8 155.65,-32.05 61.8,41.2 41.2,178.54 41.2,178.54 -47.7,-25.44 -93.3,-58.67 -128.66,-87.08" /><path
         id="path16"
         style="fill:#ffffff;fill-opacity:1;fill-rule:nonzero;stroke:none"
         d="m 3787.16,6235.78 -487.83,-309.1 -594.71,-371.09 64.5,-24.65 -0.27,0.8 c 1468.11,434.26 1018.31,704.04 1018.31,704.04" /><path
         id="path18"
         style="fill:#254d66;fill-opacity:1;fill-rule:nonzero;stroke:none"
         d="m 5741.16,3990.04 c -79.86,-372.7 -500.48,-447.24 -500.48,-447.24 -250.24,-383.34 -559.04,-330.1 -559.04,-330.1 -207.65,-143.76 -497.82,-186.35 -497.82,-186.35 -346.08,-37.27 -1006.28,455.22 -1046.22,588.33 -39.93,133.1 -13.31,436.59 15.98,593.65 29.28,157.07 307.47,334.1 307.47,334.1 l 27.96,17.3 c -10.54,-7.83 -20.55,-15.68 -30.25,-23.52 -15.32,-41.97 -103.12,-288.86 -77.57,-369.14 27.95,-87.85 203.65,-155.73 299.49,-187.68 95.83,-31.95 391.33,167.71 431.26,207.65 39.93,39.93 83.86,335.42 407.31,455.22 h 103.82 c 0,0 -43.93,527.1 307.48,690.82 351.4,163.72 555.05,-91.84 555.05,-91.84 0,0 -347.41,131.77 -519.12,11.98 -171.7,-119.8 -219.62,-315.47 -219.62,-606.97 l 147.75,-23.96 c 0,0 -303.48,-39.93 -387.34,-75.87 -83.86,-35.94 -255.57,-167.71 -319.46,-439.25 0,0 -351.4,-219.62 -443.24,-219.62 -91.84,0 -395.33,147.74 -443.24,259.55 -47.92,111.81 0,179.7 0,179.7 l 43.92,-91.85 c 0,0 -42.07,133.94 96.88,287.48 -167.24,-141.91 -203.36,-278.54 -203.36,-298.12 0,-21.3 -53.25,-367.38 -21.3,-521.78 31.94,-154.41 697.48,-580.34 953.04,-553.72 255.56,26.62 617.61,271.53 617.61,271.53 l -47.92,-122.45 c 335.43,53.24 580.35,553.72 580.35,553.72 l -31.95,-159.73 c 452.56,159.73 452.56,867.85 452.56,867.85 0,0 79.87,-196.99 0,-569.69 m -1954,1397.8 c -266.21,-337.9 -721.43,-277.05 -535.08,-255.75 186.35,21.3 535.08,255.75 535.08,255.75 M 2906,5443.56 c 0,0 316.79,18.63 532.43,149.08 0,0 -220.96,-194.34 -532.43,-149.08 m 880.92,959.15 -140.41,-102.79 c 51.23,110.4 146.91,159.89 146.91,159.89 112.81,-112.39 148.68,-275.87 148.68,-275.87 -32.78,93.69 -155.18,218.77 -155.18,218.77 m 1507.01,-782.12 c 203.65,-27.95 215.63,-295.5 215.63,-295.5 0,0 -7.99,163.72 -203.66,223.62 -195.66,59.9 -383.34,-139.76 -383.34,-139.76 60.17,115.41 167.71,239.59 371.37,211.64 m -2051.84,528.2 c 0,0 -90.42,-85.84 -191.13,17.16 l -89.06,-11.6 c 9.16,6.86 176.04,169.54 315.67,238.21 0,0 51.5,-168.24 -35.48,-243.77 m -947.05,-522.36 c 0,0 81.97,21.25 72.86,47.06 -9.1,25.8 -65.27,42.5 -229.21,-51.61 0,0 95.63,80.45 156.35,91.07 60.72,10.63 104.74,-6.07 113.85,-30.36 9.1,-24.28 -72.87,-63.75 -113.85,-56.16 m 2535.68,549.21 c 0,115.81 -39.94,353.62 -39.94,353.62 0,0 167.72,-345.63 131.78,-433.48 -35.94,-87.85 -515.12,-351.4 -515.12,-351.4 0,0 423.28,315.46 423.28,431.26 m 893.19,-324.93 c 96.71,-222.98 136.39,-415.94 146.33,-470.23 9.04,-28.12 2.7,-15.45 2.7,-15.45 0,0 -0.88,5.55 -2.7,15.45 -9.87,30.7 -38.08,110.02 -113.11,307.99 -104.19,274.96 -359.31,528.81 -491.9,647.78 48.87,-104.67 90.52,-234.35 72.62,-328.32 -31.95,-167.72 -634.92,-423.28 -634.92,-423.28 0,0 479.19,315.46 513.13,395.32 33.94,79.87 -13.98,235.6 -53.91,371.37 -22.09,75.11 -69.8,114.68 -108.06,135.13 83.61,-137.93 108.06,-389.63 108.06,-466.56 0,-107.82 -802.96,-510.8 -779.34,-487.17 23.63,23.63 607.63,431.26 663.54,487.17 39.92,39.92 -40.3,307.9 -89.43,457.86 -72.61,91.77 -251.45,261.4 -349.82,243.61 -116.55,-21.09 -457.89,90.51 -457.89,90.51 -452.56,181.03 -729.42,117.13 -729.42,117.13 -995.63,-95.83 -1643.86,-1364.34 -1643.86,-1364.34 271.53,-95.83 802.63,-11.98 874.51,19.97 71.87,31.95 1125.31,748.46 1125.31,748.46 l 72.64,-77.6 c 375.36,-375.36 -1007.6,-780.68 -1007.6,-780.68 0,0 -8.26,-64.61 -13.79,-101.02 59.89,-104.92 209.44,-225.75 209.44,-225.75 -93.91,39.32 -155.62,80.01 -195.93,118.41 l 0.28,-0.4 c 0,0 -102.84,10.13 -248.02,-401.11 l -28.83,-87.62 -7.45,-41.51 c 0,0 -266.21,-279.52 -306.14,-495.15 -39.93,-215.63 -75.1,-796.38 -75.1,-956.1 0,-113.86 142.56,-308.32 152.78,-334.24 21.04,13.43 44.83,27.81 58.75,33.48 133.43,54.39 247.5,192.88 278.5,232.88 -5.4,24.12 -9.53,49.36 -12.18,75.86 -58.57,585.67 292.83,1267.17 292.83,1267.17 0,0 -240.36,-1019.19 -197.76,-1306.7 31.68,-213.84 417.16,-405.78 612.66,-490.12 h 1705.15 c -3.35,22.42 -3.13,49.61 4.33,82.42 26.62,117.13 244.91,276.86 362.05,393.99 117.13,117.13 280.74,264.86 383.34,399.31 229.57,300.83 143.76,1368.34 143.76,1368.34 l 78.63,-697.18 129.01,207.35 37.27,-271.54 c 0,0 295.5,93.18 457.89,-69.21 l 117.13,298.16 79.87,-351.4 c 0,0 160.39,-28.62 367.37,-235.6 0,0 10.27,1164.82 -1502.72,1963.16" /><path
         id="path20"
         style="fill:#254d66;fill-opacity:1;fill-rule:nonzero;stroke:none"
         d="m 2691.55,3131.29 c -9.76,-11.75 -21.3,-24.73 -35.23,-39.32 -131.5,-137.73 -252.55,-167.16 -318.55,-171.54 17.31,-62.08 16.72,-120.86 13.62,-157.52 h 805.35 c -177.27,49.42 -379.45,152.56 -465.19,368.38" /><path
         id="path22"
         style="fill:#254d66;fill-opacity:1;fill-rule:nonzero;stroke:none"
         d="m 1468.45,4813.97 c 0,0 -314.69,-204.18 -383.34,-487.17 -49.89,-205.63 84.47,-420.18 229.06,-580.37 -13.86,61.71 -30.91,173.8 -41.38,372.72 -19.97,379.35 195.66,694.82 195.66,694.82" /><path
         id="path24"
         style="fill:#254d66;fill-opacity:1;fill-rule:nonzero;stroke:none"
         d="m 2159.28,4282.87 c 0,0 -331.44,15.97 -432.6,-37.27 -84.16,-44.29 -286.13,16.1 -351.66,37.66 -52.04,-220.39 -47.11,-457.08 -41.74,-557.63 48.23,-51.6 96.75,-96.94 139.17,-133.58 139.62,-120.58 492.23,-173.16 630.12,-189.59 10.12,285.16 45.7,829.27 124.59,1000.21 45.58,98.77 126.79,203.94 199.43,287.12 -39.27,-18.51 -81.11,-43.68 -114.24,-76.81 -87.85,-87.85 -153.07,-330.11 -153.07,-330.11" /><path
         id="path26"
         style="fill:#ffffff;fill-opacity:1;fill-rule:nonzero;stroke:none"
         d="m 2414.22,2722.5 c 98.32,9.57 238.25,21.79 311.63,21.79 12.05,0 22.32,-0.33 30.3,-1.06 28.6,-2.6 97.38,-6.89 177.17,-11.49 -228.29,-4.19 -414.52,-7.44 -519.1,-9.24 m -112.81,185.45 -0.48,4.33 -162.39,308.81 55.69,835.38 c 16.72,103.74 36.31,195.83 58.78,256.08 0,0 -15.28,-25.21 -41.84,-77.33 l 25.87,165.19 274.2,330.1 63.89,120.93 74.54,201.19 138.43,255.56 1.28,9.17 c 2.53,-19.06 7.3,-41.88 16.09,-66.16 -42.01,-29.84 -118.43,-119.2 -212.7,-386.24 l -28.83,-87.62 -7.45,-41.51 c 0,0 -266.21,-279.52 -306.14,-495.15 -39.93,-215.63 -75.1,-796.38 -75.1,-956.1 0,-23.93 6.29,-51.41 16.33,-80.15 -32.73,8.03 -53.04,16.66 -53.04,16.66 l 162.39,-286.18 0.48,-26.96 m 875.32,645.33 c -20.8,24.57 -34.37,45.53 -39.13,61.4 -39.93,133.1 -13.31,436.59 15.98,593.65 29.28,157.07 307.47,334.1 307.47,334.1 l 27.96,17.3 c -10.54,-7.83 -20.55,-15.68 -30.25,-23.52 -15.32,-41.97 -103.12,-288.86 -77.57,-369.14 27.95,-87.85 203.65,-155.73 299.49,-187.68 7.04,-2.35 15.18,-3.45 24.2,-3.45 113.7,0 370.07,174.1 407.06,211.1 22.44,22.44 46.13,125.56 119.99,232.88 -5.01,-45.73 -16.31,-91.34 -29.57,-134.6 -7.63,-19.13 -13.68,-38.06 -18.46,-56.05 -2.73,-7.86 -5.47,-15.59 -8.17,-23.18 l -99.83,-109.17 c 0,0 -268.54,-146.75 -277.53,-155.73 -0.89,-0.89 -3.3,-1.29 -6.92,-1.29 -33.03,0 -166.78,33.23 -166.78,33.23 l -241.59,139.77 -27.95,93.19 29.95,190.32 65.89,137.77 c 0,0 -159.73,-141.76 -189.68,-171.71 -29.95,-29.95 -53.91,-111.81 -53.91,-111.81 l -50.64,-397.32 c 0,0 -16.58,-62.34 4.93,-142.26 -0.97,-56.29 4.43,-108.79 15.06,-157.8 m -365.79,350.76 c 3.35,194.43 17.09,356.6 17.09,356.6 -5.78,-5.94 -11.38,-11.97 -16.86,-18.15 69.56,190.8 134.76,317.24 134.76,317.24 0,0 -76.03,-322.39 -134.99,-655.69 m 966.88,1477.61 c 6.08,3.99 9.34,6.19 9.34,6.19 -1.02,-1.3 -2.04,-2.59 -3.07,-3.87 -1.85,-0.69 -3.94,-1.46 -6.27,-2.32 m -719.99,57.72 c 0,0 42.67,17.46 107.2,46.2 90.01,22.39 189.37,56.24 273.4,107.07 0,0 -14.14,-12.43 -40.27,-30.26 -100.6,-50.55 -223.21,-101.65 -340.33,-123.01 m 1324.93,92.37 c -0.62,0 -0.62,0.33 0.05,1 8.59,8.58 91.17,67.87 195.52,142.58 9.85,0.21 20.29,0.81 29.88,1.62 -113.01,-74.84 -204.24,-133.76 -218.81,-143.16 -3.48,-1.34 -5.73,-2.04 -6.64,-2.04 m 24.68,212.64 c 0,0 3.01,2.24 8.53,6.42 1.43,0.39 3.43,0.93 5.95,1.62 -9.31,-5.2 -14.48,-8.04 -14.48,-8.04 m 128.44,101.39 c 9.15,7.54 18.56,15.37 28.12,23.41 1.03,0.32 2.06,0.63 3.08,0.94 l -31.2,-24.35 m -705.52,108.38 c 16.71,35.45 27.63,70.8 32.36,104.36 0.99,2.15 1.88,4.28 2.68,6.37 7.56,18.37 12.96,38.44 13.36,59.08 0.3,3.27 0.54,6.54 0.72,9.8 l 7.16,-12.5 c 0,0 9.64,3.01 26.09,8.1 3.49,-59.45 -28.07,-118.4 -82.37,-175.21" /><path
         id="path28"
         style="fill:#ccd0d7;fill-opacity:1;fill-rule:nonzero;stroke:none"
         d="m 3866.22,2882.53 c -258.56,0.02 -901.05,214.19 -998.26,439.72 -52.01,120.66 -60.66,370.31 -57.02,581.79 58.96,333.3 134.99,655.69 134.99,655.69 0,0 -65.2,-126.44 -134.76,-317.24 -270.45,-305.19 -169.92,-890.44 -322.56,-996.12 -61.54,-42.6 -129.09,-55.48 -188.31,-55.48 -42.22,0 -80.19,6.55 -108.72,13.54 -10.04,28.74 -16.33,56.22 -16.33,80.15 0,159.72 35.17,740.47 75.1,956.1 39.93,215.63 306.14,495.15 306.14,495.15 l 7.45,41.51 28.83,87.62 c 94.27,267.04 170.69,356.4 212.7,386.24 21.03,-58.12 65.06,-124.61 156.43,-167.96 45.88,-21.77 108.51,-32.65 179.27,-32.65 227.81,0 540.34,112.64 653.13,337.25 0,0 -3.54,-1.39 -10.21,-3.87 1.03,1.28 2.05,2.57 3.07,3.87 0,0 -3.26,-2.2 -9.34,-6.19 -66.3,-24.26 -321.12,-111.58 -553.95,-111.59 -95.97,0 -188.19,14.83 -261.97,55.03 0,0 462.45,78.95 656.78,365.12 0,0 -92.42,-63.46 -220.52,-127.83 26.13,17.83 40.27,30.26 40.27,30.26 -84.03,-50.83 -183.39,-84.68 -273.4,-107.07 157.78,70.29 446.27,208.06 561.47,323.26 45.3,45.3 80.32,95.38 103.86,145.32 54.3,56.81 85.86,115.76 82.37,175.21 88.31,27.32 372.77,114.35 413.16,114.35 18.14,0 33.62,-27.09 45.84,-60.76 -94.87,-149.29 -253.25,-388.27 -359.05,-494.08 -21.02,-21.01 -27.38,-30.51 -22.77,-30.52 21.71,-0.03 287.2,210.84 409.2,418.95 2.62,-13.8 3.99,-22.6 3.99,-22.6 l 93.17,10.65 c 0,0 -29.11,-137.79 -54.2,-197.96 -76.88,-93.6 -165.16,-187.72 -243.05,-237.08 -28.05,-17.79 -37.45,-25.95 -33.22,-25.95 15.23,-0.02 206.75,105.43 341.47,248.31 18.05,4.94 37.58,10.68 56.73,16.51 -9.56,-8.04 -18.97,-15.87 -28.12,-23.41 l -122.56,-95.67 c 0,0 0.91,0.24 2.65,0.7 -5.52,-4.18 -8.53,-6.42 -8.53,-6.42 0,0 5.17,2.84 14.48,8.04 26.43,7.25 110.32,31.18 203.48,67.27 -35.47,-58.21 -77.61,-126.1 -86.54,-135.02 -7.05,-7.06 9.79,-9.44 31.93,-9.44 2.46,0 4.98,0.03 7.54,0.09 -104.35,-74.71 -186.93,-134 -195.52,-142.58 -0.67,-0.67 -0.67,-1 -0.05,-1 0.91,0 3.16,0.7 6.64,2.04 -1.34,-0.86 -2.03,-1.31 -2.03,-1.31 0,0 24.52,8.89 65.22,24.82 -363.52,-239.67 -1129.65,-759.01 -1226.15,-964.09 0,0 442.71,152.49 718.17,152.49 75.54,0 138.49,-11.46 176.3,-40.68 101.72,-78.6 122.29,-182.15 111.02,-285.09 -73.86,-107.32 -97.55,-210.44 -119.99,-232.88 -36.99,-37 -293.36,-211.1 -407.06,-211.1 -9.02,0 -17.16,1.1 -24.2,3.45 -95.84,31.95 -271.54,99.83 -299.49,187.68 -25.55,80.28 62.25,327.17 77.57,369.14 9.7,7.84 19.71,15.69 30.25,23.52 l -27.96,-17.3 c 0,0 -278.19,-177.03 -307.47,-334.1 -29.29,-157.06 -55.91,-460.55 -15.98,-593.65 4.76,-15.87 18.33,-36.83 39.13,-61.4 120.84,-557.01 917.13,-660.07 709.49,-670.29 -6.39,-0.31 -13.03,-0.47 -20,-0.46" /><path
         id="path30"
         style="fill:#ffffff;fill-opacity:1;fill-rule:nonzero;stroke:none"
         d="m 2814.72,5497.2 v 0 l 750.72,316.79 c 0,0 97.01,59.46 169.58,106.55 -144.55,-118.1 -357.91,-242.2 -394.44,-263.18 -3.75,-1.62 -7.46,-3.23 -11.2,-4.84 L 2814.72,5497.2" /><path
         id="path32"
         style="fill:#ccd0d7;fill-opacity:1;fill-rule:nonzero;stroke:none"
         d="m 3329.38,5652.52 c 3.74,1.61 7.45,3.22 11.2,4.84 -3.54,-2.03 -5.41,-3.09 -5.41,-3.09 l -5.79,-1.75" /><path
         id="path34"
         style="fill:#ffffff;fill-opacity:1;fill-rule:nonzero;stroke:none"
         d="m 2512.64,5526.51 c 72.96,8.85 120.03,15.97 120.03,15.97 l 365.08,229.81 -348.08,-227.17 c 0,0 -53.69,-8.76 -137.03,-18.61 m -778.74,15.95 v 0 l 20.38,57.02 c 0,0 15.65,1.57 43.45,5.62 -14.4,-25.94 -21.8,-40.42 -21.8,-40.42 15.73,-5.55 32.34,-10.5 49.67,-14.89 -57.11,-5.21 -91.7,-7.33 -91.7,-7.33 m 404.79,79.42 c 0,0 95.63,80.45 156.35,91.07 12.78,2.24 24.82,3.27 35.95,3.27 41.75,0 70.71,-14.45 77.9,-33.63 8.33,-22.21 -59.52,-57.11 -102.53,-57.11 -4.02,0 -7.82,0.3 -11.32,0.95 0,0 81.97,21.25 72.86,47.06 -3.84,10.89 -16.07,20.16 -41.24,20.16 -34.47,0 -93.22,-17.38 -187.97,-71.77 m 1017,493.37 c -30.64,0 -66.96,12.07 -104.73,50.7 l -75.48,-9.84 c 65.36,48.74 99.21,76.95 99.21,76.95 l 186.35,117.14 c 0,0 10.71,-6.01 28.3,-15.33 7.38,-55.92 6.96,-139.01 -47.25,-186.08 0,0 -35.32,-33.54 -86.4,-33.54 m -50.22,123 c -29.31,-24.67 -47.64,-42.54 -47.64,-42.54 32.29,-32.29 62.65,-52.69 96,-52.69 18.66,0 38.26,6.38 59.65,20.64 61.8,41.2 41.2,178.54 41.2,178.54 -47.7,-25.44 -93.3,-58.67 -128.66,-87.08 l 1.05,0.1 c 12.32,0 22.31,-9.99 22.31,-22.31 0,-12.33 -9.99,-22.32 -22.31,-22.32 -12.33,0 -22.32,9.99 -22.32,22.32 0,1.85 0.29,3.62 0.72,5.34" /><path
         id="path36"
         style="fill:#ffffff;fill-opacity:1;fill-rule:nonzero;stroke:none"
         d="m 3153.83,6143.02 c -33.35,0 -63.71,20.4 -96,52.69 0,0 18.33,17.87 47.64,42.54 -0.43,-1.72 -0.72,-3.49 -0.72,-5.34 0,-12.33 9.99,-22.32 22.32,-22.32 12.32,0 22.31,9.99 22.31,22.32 0,12.32 -9.99,22.31 -22.31,22.31 l -1.05,-0.1 c 35.36,28.41 80.96,61.64 128.66,87.08 0,0 20.6,-137.34 -41.2,-178.54 -21.39,-14.26 -40.99,-20.64 -59.65,-20.64" /><path
         id="path38"
         style="fill:#ccd0d7;fill-opacity:1;fill-rule:nonzero;stroke:none"
         d="m 1825.6,5549.79 c -17.33,4.39 -33.94,9.34 -49.67,14.89 0,0 7.4,14.48 21.8,40.42 117.17,17.08 449.88,78.33 733.89,252.6 203.69,125 353.72,231.21 443.86,298.41 l 75.48,9.84 c 37.77,-38.63 74.09,-50.7 104.73,-50.7 51.08,0 86.4,33.54 86.4,33.54 54.21,47.07 54.63,130.16 47.25,186.08 61,-32.32 204.81,-104.51 272.39,-104.51 0.95,0 1.87,0.01 2.8,0.04 7.97,0.25 15.54,0.54 22.81,0.9 C 3328.43,6085.31 2910.58,5851.27 2704.62,5744.38 2464.8,5619.9 2017.79,5567.34 1825.6,5549.79 m 505.39,166.43 c -11.13,0 -23.17,-1.03 -35.95,-3.27 -60.72,-10.62 -156.35,-91.07 -156.35,-91.07 94.75,54.39 153.5,71.77 187.97,71.77 25.17,0 37.4,-9.27 41.24,-20.16 9.11,-25.81 -72.86,-47.06 -72.86,-47.06 3.5,-0.65 7.3,-0.95 11.32,-0.95 43.01,0 110.86,34.9 102.53,57.11 -7.19,19.18 -36.15,33.63 -77.9,33.63" /><path
         id="path40"
         style="fill:#ffffff;fill-opacity:1;fill-rule:nonzero;stroke:none"
         d="m 3861.41,6055.74 c 0.45,0.98 0.9,1.96 1.34,2.95 -0.01,-0.05 -0.02,-0.13 -0.03,-0.18 -0.42,-0.92 -0.85,-1.83 -1.31,-2.77" /><path
         id="path42"
         style="fill:#bfbdbb;fill-opacity:1;fill-rule:nonzero;stroke:none"
         d="m 2789.38,5317.36 c -4.24,31.98 -2.18,53.39 -2.18,53.39 l 27.52,126.45 -10.65,-74.54 -14.69,-105.3 m 945.64,603.18 c 59.5,48.62 107.35,96.23 126.39,135.2 -19.48,-42.22 -48.39,-73.74 -48.39,-79.36 0,-3.98 -34.64,-27.7 -78,-55.84" /><path
         id="path44"
         style="fill:#bfbdbb;fill-opacity:1;fill-rule:nonzero;stroke:none"
         d="m 3246.66,5113.83 c -47.8,0 -55.8,11.26 5.42,18.26 168.31,19.24 469.09,212.36 525.74,249.56 2.33,0.86 4.42,1.63 6.27,2.32 -178.7,-223.56 -440.27,-270.14 -537.43,-270.14 m -210.22,34.23 c -93.91,39.32 -155.62,80.01 -195.93,118.41 l 0.28,-0.4 c 0,0 -0.22,0.02 -0.67,0.02 -2.89,0 -15.01,-0.94 -34.65,-14.89 -8.79,24.28 -13.56,47.1 -16.09,66.16 l 14.69,105.3 10.65,74.54 514.66,155.32 c -251.29,-108.13 -488.59,-177.69 -488.59,-177.69 0,0 -8.26,-64.61 -13.79,-101.02 59.89,-104.92 209.44,-225.75 209.44,-225.75 m -36.09,288.66 c -30.37,0 -61.86,2.12 -94.35,6.84 0,0 118.03,6.95 259.03,42.01 -64.53,-28.74 -107.2,-46.2 -107.2,-46.2 117.12,21.36 239.73,72.46 340.33,123.01 -66.46,-45.34 -210.62,-125.66 -397.81,-125.66 m 340.23,220.64 c 36.53,20.98 249.89,145.08 394.44,263.18 43.36,28.14 78,51.86 78,55.84 0,5.62 28.91,37.14 48.39,79.36 0.46,0.94 0.89,1.85 1.31,2.77 -4.73,-33.56 -15.65,-68.91 -32.36,-104.36 -106.74,-111.66 -301.27,-214.93 -489.78,-296.79" /><path
         id="path46"
         style="fill:#9c9ea3;fill-opacity:1;fill-rule:nonzero;stroke:none"
         d="m 3141.17,5050.59 c -70.76,0 -133.39,10.88 -179.27,32.65 -91.37,43.35 -135.4,109.84 -156.43,167.96 19.64,13.95 31.76,14.89 34.65,14.89 0.45,0 0.67,-0.02 0.67,-0.02 l -0.28,0.4 c 40.31,-38.4 102.02,-79.09 195.93,-118.41 0,0 -149.55,120.83 -209.44,225.75 5.53,36.41 13.79,101.02 13.79,101.02 0,0 237.3,69.56 488.59,177.69 l 5.79,1.75 c 0,0 1.87,1.06 5.41,3.09 188.51,81.86 383.04,185.13 489.78,296.79 -23.54,-49.94 -58.56,-100.02 -103.86,-145.32 -115.2,-115.2 -403.69,-252.97 -561.47,-323.26 -141,-35.06 -259.03,-42.01 -259.03,-42.01 32.49,-4.72 63.98,-6.84 94.35,-6.84 187.19,0 331.35,80.32 397.81,125.66 128.1,64.37 220.52,127.83 220.52,127.83 -194.33,-286.17 -656.78,-365.12 -656.78,-365.12 73.78,-40.2 166,-55.03 261.97,-55.03 232.83,0.01 487.65,87.33 553.95,111.59 -56.65,-37.2 -357.43,-230.32 -525.74,-249.56 -61.22,-7 -53.22,-18.26 -5.42,-18.26 97.16,0 358.73,46.58 537.43,270.14 6.67,2.48 10.21,3.87 10.21,3.87 -112.79,-224.61 -425.32,-337.25 -653.13,-337.25" /><path
         id="path48"
         style="fill:#bfbdbb;fill-opacity:1;fill-rule:nonzero;stroke:none"
         d="m 2037.84,5492.77 c -133.15,0 -250.7,12.42 -303.94,49.69 v 0 c 96.76,-32.26 228.32,-43.1 361.55,-43.1 153.92,0 310.06,14.48 417.19,27.15 -119.76,-14.54 -309.31,-33.74 -474.8,-33.74 m 959.91,279.52 210.74,137.54 512.42,342.29 c 20.59,5.51 43.7,12.44 71.37,21.16 4.19,-3.14 8.92,-7.09 14.1,-12.04 l 72.07,-125.69 c 0.29,-3.88 0.39,-7.75 0.31,-11.59 -1.78,-19.23 -5.86,-38.68 -12.92,-57.92 -0.15,-0.39 -0.29,-0.77 -0.44,-1.16 -0.86,-2.08 -1.74,-4.15 -2.65,-6.19 12.42,88.48 -18.29,164.27 -99.88,195.22 l -765.12,-481.62 m 881.73,361.47 -1.03,1.79 c -1.21,16.09 -5.72,32.39 -14.85,48.39 -21.96,38.47 -41.66,62.42 -57.22,77.3 l -8.01,13.97 c -2.06,-0.66 -4.08,-1.3 -6.09,-1.93 -13.76,10.29 -21.86,11.91 -21.86,11.91 l -49.51,-33.07 c -33.99,-9.11 -61.09,-14.38 -90.37,-17.56 88.3,59.84 145.21,98.55 145.21,98.55 l 72.64,-77.6 c 6.69,-6.69 12.82,-13.39 18.41,-20.1 8.86,-31.07 14.58,-65.86 12.68,-101.65" /><path
         id="path50"
         style="fill:#244658;fill-opacity:1;fill-rule:nonzero;stroke:none"
         d="m 3587.34,6231.3 c 132.17,74.52 222.94,126.1 222.94,126.1 0,0 36.38,-51.36 56.52,-121.99 -5.59,6.71 -11.72,13.41 -18.41,20.1 l -72.64,77.6 c 0,0 -56.91,-38.71 -145.21,-98.55 -13.62,-1.48 -27.72,-2.51 -43.2,-3.26" /><path
         id="path52"
         style="fill:#bfbdbb;fill-opacity:1;fill-rule:nonzero;stroke:none"
         d="m 2095.45,5499.36 c -133.23,0 -264.79,10.84 -361.55,43.1 0,0 34.59,2.12 91.7,7.33 85,-21.53 187.63,-29.65 291.33,-29.65 240.16,0 486.21,43.49 533.51,64.51 55.16,24.52 688.58,452.33 980.1,649.91 29.28,3.18 56.38,8.45 90.37,17.56 l -512.42,-342.29 -210.74,-137.54 -365.08,-229.81 c 0,0 -47.07,-7.12 -120.03,-15.97 -107.13,-12.67 -263.27,-27.15 -417.19,-27.15" /><path
         id="path54"
         style="fill:#9c9ea3;fill-opacity:1;fill-rule:nonzero;stroke:none"
         d="m 2116.93,5520.14 c -103.7,0 -206.33,8.12 -291.33,29.65 192.19,17.55 639.2,70.11 879.02,194.59 205.96,106.89 623.81,340.93 882.72,486.92 15.48,0.75 29.58,1.78 43.2,3.26 -291.52,-197.58 -924.94,-625.39 -980.1,-649.91 -47.3,-21.02 -293.35,-64.51 -533.51,-64.51" /><path
         id="path56"
         style="fill:#bfbdbb;fill-opacity:1;fill-rule:nonzero;stroke:none"
         d="m 3862.72,6058.51 c 0.01,0.05 0.02,0.13 0.03,0.18 0.91,2.04 1.79,4.11 2.65,6.19 -0.8,-2.09 -1.69,-4.22 -2.68,-6.37 m 16.04,65.45 c 0.08,3.84 -0.02,7.71 -0.31,11.59 l 1.03,-1.79 c -0.18,-3.26 -0.42,-6.53 -0.72,-9.8 m -0.31,11.59 -72.07,125.69 c 15.56,-14.88 35.26,-38.83 57.22,-77.3 9.13,-16 13.64,-32.3 14.85,-48.39 m -157.54,116.57 49.51,33.07 c 0,0 8.1,-1.62 21.86,-11.91 -27.67,-8.72 -50.78,-15.65 -71.37,-21.16 m 85.47,9.12 c -5.18,4.95 -9.91,8.9 -14.1,12.04 2.01,0.63 4.03,1.27 6.09,1.93 l 8.01,-13.97" /><path
         id="path58"
         style="fill:#bfbdbb;fill-opacity:1;fill-rule:nonzero;stroke:none"
         d="m 4567.08,5870.12 319.44,249.35 -74.33,363.81 c 43.99,-97.06 138.19,-319.5 110.37,-387.5 -16.84,-41.16 -131.01,-120.92 -247.59,-194.04 1.51,2.52 2.32,3.88 2.32,3.88 0,0 -53.04,-18.02 -110.21,-35.5" /><path
         id="path60"
         style="fill:#244658;fill-opacity:1;fill-rule:nonzero;stroke:none"
         d="m 4625.4,5819.69 c 22.85,37.48 42.92,70.95 49.57,82.05 116.58,73.12 230.75,152.88 247.59,194.04 27.82,68 -66.38,290.44 -110.37,387.5 l -1.54,7.56 c 0,0 189.67,-295.5 129.78,-457.22 -32.3,-87.2 -182.99,-162.78 -315.03,-213.93" /><path
         id="path62"
         style="fill:#bfbdbb;fill-opacity:1;fill-rule:nonzero;stroke:none"
         d="m 4415.97,5750.8 c 18.4,13.95 64.65,49.43 119.91,94.97 l 31.2,24.35 c 57.17,17.48 110.21,35.5 110.21,35.5 0,0 -0.81,-1.36 -2.32,-3.88 -106.37,-66.73 -214.74,-127.94 -253.05,-149.32 -2.52,-0.69 -4.52,-1.23 -5.95,-1.62" /><path
         id="path64"
         style="fill:#9c9ea3;fill-opacity:1;fill-rule:nonzero;stroke:none"
         d="m 4413.32,5750.1 122.56,95.67 c -55.26,-45.54 -101.51,-81.02 -119.91,-94.97 -1.74,-0.46 -2.65,-0.7 -2.65,-0.7 m 8.6,2.32 c 38.31,21.38 146.68,82.59 253.05,149.32 -6.65,-11.1 -26.72,-44.57 -49.57,-82.05 -93.16,-36.09 -177.05,-60.02 -203.48,-67.27" /><path
         id="path66"
         style="fill:#bfbdbb;fill-opacity:1;fill-rule:nonzero;stroke:none"
         d="m 4486.81,5579.81 c 96.57,63.44 157.05,102.22 155.96,102.22 -0.01,0 -0.04,-0.01 -0.08,-0.02 -4.28,-1.71 -18.15,-3.7 -34.48,-5.07 200.8,132.97 470.25,316.15 499.93,360.67 47.92,71.88 -59.9,443.25 -59.9,443.25 30.55,-65.22 54.95,-122.46 74.39,-172.6 29.42,-117.24 39.52,-238.9 39.52,-288.35 0,-81.85 -462.77,-333.82 -675.34,-440.1" /><path
         id="path68"
         style="fill:#244658;fill-opacity:1;fill-rule:nonzero;stroke:none"
         d="m 4452.59,5557.29 c 11.84,7.81 23.27,15.33 34.22,22.52 212.57,106.28 675.34,358.25 675.34,440.1 0,49.45 -10.1,171.11 -39.52,288.35 103.12,-266.1 66.37,-332.54 66.37,-332.54 -139.37,-173.02 -571.18,-353.75 -736.41,-418.43" /><path
         id="path70"
         style="fill:#bfbdbb;fill-opacity:1;fill-rule:nonzero;stroke:none"
         d="m 4389.4,5533.78 c 14.57,9.4 105.8,68.32 218.81,143.16 16.33,1.37 30.2,3.36 34.48,5.07 0.04,0.01 0.07,0.02 0.08,0.02 1.09,0 -59.39,-38.78 -155.96,-102.22 -47.89,-23.94 -83.07,-40.48 -97.41,-46.03" /><path
         id="path72"
         style="fill:#9c9ea3;fill-opacity:1;fill-rule:nonzero;stroke:none"
         d="m 4387.37,5532.47 c 0,0 0.69,0.45 2.03,1.31 14.34,5.55 49.52,22.09 97.41,46.03 -10.95,-7.19 -22.38,-14.71 -34.22,-22.52 -40.7,-15.93 -65.22,-24.82 -65.22,-24.82" /><path
         id="path74"
         style="fill:#bfbdbb;fill-opacity:1;fill-rule:nonzero;stroke:none"
         d="m 4721.63,5592.75 c 72.24,42.67 483.64,286.78 538.25,345.03 59.9,63.89 -19.97,419.29 -19.97,419.29 0,0 12.31,-10.55 29.69,-30.29 46.94,-102.93 85.61,-227.7 68.25,-318.85 -28.58,-150.05 -514.22,-370.41 -616.22,-415.18" /><path
         id="path76"
         style="fill:#244658;fill-opacity:1;fill-rule:nonzero;stroke:none"
         d="m 4710.82,5586.38 c 0,0 3.81,2.24 10.81,6.37 102,44.77 587.64,265.13 616.22,415.18 17.36,91.15 -21.31,215.92 -68.25,318.85 46.81,-53.15 130.46,-172.95 110.07,-333.09 -27.95,-219.63 -668.85,-407.31 -668.85,-407.31" /><path
         id="path78"
         style="fill:#bfbdbb;fill-opacity:1;fill-rule:nonzero;stroke:none"
         d="m 4345.44,2703.3 -1034.23,7.99 c 0,0 -212.56,10.9 -377.89,20.45 199.71,3.66 431.61,8.05 669.39,12.82 65.5,1.32 128.5,7.77 188.95,18.35 h 1274.32 v 0 c -3.35,22.42 -3.13,49.61 4.33,82.42 25.15,110.65 221.35,259.31 341.73,374.18 -66.52,-80.57 -112.23,-132.86 -112.23,-132.86 l -175.7,-211.64 -23.96,-155.73 -754.71,-15.98 m -213.78,384.68 c 0,0 -418.26,150.62 -435.36,167.71 -17.09,17.1 -226.7,130.45 -407.72,271.54 -75.94,59.19 -111.37,126.11 -126.91,183.85 0.94,54.47 7.84,112.48 21.75,174.2 0,0 3.43,-27.39 23.97,-69.68 0.64,-42.68 3.61,-81.81 10.08,-113.07 30.98,-149.75 657.93,-554.92 928.85,-554.92 8.42,0 16.49,0.39 24.19,1.2 255.56,26.62 617.61,271.53 617.61,271.53 l -47.92,-122.45 c 335.43,53.24 580.35,553.72 580.35,553.72 l -31.95,-159.73 c 452.56,159.73 452.56,867.85 452.56,867.85 0,0 79.87,-196.99 0,-569.69 -79.86,-372.7 -500.48,-447.24 -500.48,-447.24 -195.83,-300 -427.55,-332.62 -519.04,-332.62 -25.42,0 -40,2.52 -40,2.52 -56.81,-39.33 -119.77,-71.08 -181.29,-96.46 114.82,100.51 176.94,182.05 176.94,182.05 l -545.63,-210.31" /><path
         id="path80"
         style="fill:#244658;fill-opacity:1;fill-rule:nonzero;stroke:none"
         d="M 5065.98,2762.91 H 3791.66 c 313.63,54.9 557.11,220.65 708.69,353.33 61.52,25.38 124.48,57.13 181.29,96.46 0,0 14.58,-2.52 40,-2.52 91.49,0 323.21,32.62 519.04,332.62 0,0 420.62,74.54 500.48,447.24 79.87,372.7 0,569.69 0,569.69 0,0 0,-708.12 -452.56,-867.85 l 31.95,159.73 c 0,0 -244.92,-500.48 -580.35,-553.72 l 47.92,122.45 c 0,0 -362.05,-244.91 -617.61,-271.53 -7.7,-0.81 -15.77,-1.2 -24.19,-1.2 -270.92,0 -897.87,405.17 -928.85,554.92 -6.47,31.26 -9.44,70.39 -10.08,113.07 38.15,-78.53 135.35,-208.44 379.34,-309.67 232.79,-96.58 381.12,-156.3 531.64,-156.3 92.19,0 185.19,22.39 298.95,72.45 299.49,131.77 507.13,363.37 507.13,363.37 0,0 54.5,-52.67 136.52,-52.67 39.6,0 85.61,12.27 135.02,48.68 151.74,111.81 87.85,439.25 87.85,439.25 0,0 100.34,-97.7 191.51,-97.7 20.95,0 41.41,5.16 60.06,17.84 99.83,67.88 187.68,483.17 187.68,483.17 0,0 275.53,-415.29 175.7,-690.82 -69.62,-192.15 -333.45,-528.02 -486.75,-713.69 -120.38,-114.87 -316.58,-263.53 -341.73,-374.18 -7.46,-32.81 -7.68,-60 -4.33,-82.42" /><path
         id="path82"
         style="fill:#bfbdbb;fill-opacity:1;fill-rule:nonzero;stroke:none"
         d="m 2304.92,2711.29 -3.51,196.66 20.82,-187.01 c 0,0 33.01,0.55 91.99,1.56 -63.26,-6.15 -109.3,-11.21 -109.3,-11.21" /><path
         id="path84"
         style="fill:#bfbdbb;fill-opacity:1;fill-rule:nonzero;stroke:none"
         d="m 2322.23,2720.94 -20.82,187.01 -0.48,26.96 -162.39,286.18 c 0,0 20.31,-8.63 53.04,-16.66 37.74,-107.99 128.38,-233.62 136.45,-254.09 21.04,13.43 44.83,27.81 58.75,33.48 133.43,54.39 247.5,192.88 278.5,232.88 -5.4,24.12 -9.53,49.36 -12.18,75.86 -33.34,333.37 66.17,697.82 158.07,949.93 5.48,6.18 11.08,12.21 16.86,18.15 0,0 -13.74,-162.17 -17.09,-356.6 -45.87,-259.3 -81.41,-525.21 -62.77,-651.01 31.68,-213.84 417.16,-405.78 612.66,-490.12 h 430.83 c -60.45,-10.58 -123.45,-17.03 -188.95,-18.35 -237.78,-4.77 -469.68,-9.16 -669.39,-12.82 -79.79,4.6 -148.57,8.89 -177.17,11.49 -7.98,0.73 -18.25,1.06 -30.3,1.06 -73.38,0 -213.31,-12.22 -311.63,-21.79 -58.98,-1.01 -91.99,-1.56 -91.99,-1.56 m 369.32,410.35 c -9.76,-11.75 -21.3,-24.73 -35.23,-39.32 -131.5,-137.73 -252.55,-167.16 -318.55,-171.54 17.31,-62.08 16.72,-120.86 13.62,-157.52 h 805.35 c -177.27,49.42 -379.45,152.56 -465.19,368.38 m 1453.41,-106.95 c -310.48,-0.02 -820.83,354.83 -968.23,528.94 -10.63,49.01 -16.03,101.51 -15.06,157.8 15.54,-57.74 50.97,-124.66 126.91,-183.85 181.02,-141.09 390.63,-254.44 407.72,-271.54 17.1,-17.09 435.36,-167.71 435.36,-167.71 l 545.63,210.31 c 0,0 -62.12,-81.54 -176.94,-182.05 -163.38,-67.4 -316.53,-89.89 -316.53,-89.89 -12.55,-1.35 -25.54,-2.01 -38.86,-2.01" /><path
         id="path86"
         style="fill:#9c9ea3;fill-opacity:1;fill-rule:nonzero;stroke:none"
         d="m 3791.66,2762.91 h -430.83 c -195.5,84.34 -580.98,276.28 -612.66,490.12 -18.64,125.8 16.9,391.71 62.77,651.01 -3.64,-211.48 5.01,-461.13 57.02,-581.79 97.21,-225.53 739.7,-439.7 998.26,-439.72 6.97,-0.01 13.61,0.15 20,0.46 207.64,10.22 -588.65,113.28 -709.49,670.29 147.4,-174.11 657.75,-528.96 968.23,-528.94 13.32,0 26.31,0.66 38.86,2.01 0,0 153.15,22.49 316.53,89.89 -151.58,-132.68 -395.06,-298.43 -708.69,-353.33 m -1463.63,187.43 c -8.07,20.47 -98.71,146.1 -136.45,254.09 28.53,-6.99 66.5,-13.54 108.72,-13.54 59.22,0 126.77,12.88 188.31,55.48 152.64,105.68 52.11,690.93 322.56,996.12 -91.9,-252.11 -191.41,-616.56 -158.07,-949.93 2.65,-26.5 6.78,-51.74 12.18,-75.86 -31,-40 -145.07,-178.49 -278.5,-232.88 -13.92,-5.67 -37.71,-20.05 -58.75,-33.48" /><path
         id="path88"
         style="fill:#9c9ea3;fill-opacity:1;fill-rule:nonzero;stroke:none"
         d="m 3156.74,2762.91 h -805.35 c 3.1,36.66 3.69,95.44 -13.62,157.52 66,4.38 187.05,33.81 318.55,171.54 13.93,14.59 25.47,27.57 35.23,39.32 85.74,-215.82 287.92,-318.96 465.19,-368.38" /><path
         id="path90"
         style="fill:#bfbdbb;fill-opacity:1;fill-rule:nonzero;stroke:none"
         d="m 5849.16,5477.87 c -73.43,210.19 -162.01,419.98 -162.01,419.98 l 127.78,-67.88 c 6.55,-11.8 12.86,-25.01 18.91,-39.39 -35.73,20.26 -72.35,40.3 -109.93,60.13 64.26,-148.15 103.34,-283.06 125.25,-372.84" /><path
         id="path92"
         style="fill:#244658;fill-opacity:1;fill-rule:nonzero;stroke:none"
         d="m 5950.43,5101.76 c -1.41,0.01 -4,12.73 -7.72,41.38 -10.51,81.11 -49.28,207.99 -93.55,334.73 -21.91,89.78 -60.99,224.69 -125.25,372.84 37.58,-19.83 74.2,-39.87 109.93,-60.13 89.93,-213.72 125.22,-688.87 116.59,-688.82" /><path
         id="path94"
         style="fill:#bfbdbb;fill-opacity:1;fill-rule:nonzero;stroke:none"
         d="m 7267.06,3823.44 c -9.74,0 -27.34,15.09 -58.51,61.84 -87.84,131.78 -379.35,219.63 -379.35,219.63 l -63.89,259.56 -87.85,-251.57 c 0,0 0,0 -75.87,47.91 -75.87,47.92 -443.24,47.92 -443.24,47.92 v 263.55 l -155.74,-291.5 -28.77,509.99 c -2.31,112.95 -7.2,206.24 -10.63,261.54 0.87,-1.38 1.85,-2.93 2.93,-4.64 l 71.95,-637.88 129.01,207.35 37.27,-271.54 c 0,0 84.39,26.61 187.73,26.61 90.07,0 194.53,-20.2 270.16,-95.82 l 117.13,298.16 79.87,-351.4 c 0,0 160.39,-28.62 367.37,-235.6 0,0 1.07,120.59 -47.9,310.79 41.62,-29.65 69.76,-49.5 69.76,-49.5 l 27.95,-275.54 c 0,0 8.31,-49.86 -9.38,-49.86" /><path
         id="path96"
         style="fill:#244658;fill-opacity:1;fill-rule:nonzero;stroke:none"
         d="m 7226.63,3887.55 c -206.98,206.98 -367.37,235.6 -367.37,235.6 l -79.87,351.4 -117.13,-298.16 c -75.63,75.62 -180.09,95.82 -270.16,95.82 -103.34,0 -187.73,-26.61 -187.73,-26.61 l -37.27,271.54 -129.01,-207.35 -71.95,637.88 c 27.87,-44.13 124.32,-197.59 124.32,-207.84 0,-0.27 0.06,-0.41 0.18,-0.41 4.99,0 115.62,247.98 115.62,247.98 0,0 63.9,-439.25 75.88,-439.25 11.97,0 215.63,-87.85 215.63,-87.85 l 67.88,327.45 35.94,-323.45 79.86,363.38 c 0,0 143.76,-351.4 151.74,-371.37 5.89,-14.72 228.79,-174.83 345.54,-257.97 48.97,-190.2 47.9,-310.79 47.9,-310.79 m -1252.79,803.22 -15.15,268.68 c 0,0 1.63,-2.57 4.52,-7.14 3.43,-55.3 8.32,-148.59 10.63,-261.54" /><path
         id="path98"
         style="fill:#bfbdbb;fill-opacity:1;fill-rule:nonzero;stroke:none"
         d="m 4652.92,4588.09 c 0,0 -19.97,211.63 143.75,525.1 0,0 4.91,-19.18 14.16,-50.69 -47.67,-108.79 -63.97,-246.21 -63.97,-416.25 l 147.75,-23.96 c 0,0 -20.3,-2.67 -51.83,-7.25 -9.22,0.51 -18.64,0.78 -28.24,0.78 -50.08,0 -104.98,-7.43 -161.62,-27.73" /><path
         id="path100"
         style="fill:#244658;fill-opacity:1;fill-rule:nonzero;stroke:none"
         d="m 5052.24,4560.13 c 0,0 -87.08,48.16 -209.46,54.91 31.53,4.58 51.83,7.25 51.83,7.25 l -147.75,23.96 c 0,170.04 16.3,307.46 63.97,416.25 33.27,-113.42 122.66,-386.75 241.41,-502.37" /><path
         id="path102"
         style="fill:#bfbdbb;fill-opacity:1;fill-rule:nonzero;stroke:none"
         d="m 4848.58,5207.03 c 0,0 10.1,44.13 35.64,101.05 14.63,9.06 30.05,17.42 46.33,25 85.23,39.71 161.81,54.76 228.86,54.76 209.39,0 326.19,-146.6 326.19,-146.6 0,0 -6.87,2.6 -19.14,6.74 -3.5,3.18 -7.14,6.83 -10.91,10.96 -50.11,54.96 -146.66,71.31 -243.86,71.31 -142.92,0 -287.24,-35.37 -287.24,-35.37 l -75.87,-87.85 m 660.98,118.06 c 0,0 -1.7,34.8 -22.7,78.18 6.54,-10.91 12.22,-21.87 17.09,-32.7 4.8,-27.33 5.61,-45.48 5.61,-45.48 m -511.98,147.76 c 47.24,43.72 107.79,76.94 184.48,82.98 -72.41,-12.13 -137.56,-49.15 -184.48,-82.98" /><path
         id="path104"
         style="fill:#244658;fill-opacity:1;fill-rule:nonzero;stroke:none"
         d="m 5500.01,5230.67 c -9.07,0 -20.33,5.31 -33.55,17.31 12.27,-4.14 19.14,-6.74 19.14,-6.74 0,0 -116.8,146.6 -326.19,146.6 -67.05,0 -143.63,-15.05 -228.86,-54.76 -16.28,-7.58 -31.7,-15.94 -46.33,-25 23.44,52.24 59.85,115.25 113.36,164.77 46.92,33.83 112.07,70.85 184.48,82.98 8.26,0.65 16.7,0.98 25.33,0.98 13.06,0 26.58,-0.77 40.51,-2.37 120.3,-13.88 197.12,-81.37 238.96,-151.17 21,-43.38 22.7,-78.18 22.7,-78.18 0,0 -0.81,18.15 -5.61,45.48 32.86,-73.14 28.2,-139.9 -3.94,-139.9" /><path
         id="path106"
         style="fill:#bfbdbb;fill-opacity:1;fill-rule:nonzero;stroke:none"
         d="m 4171.1,4096.85 c -1.8,1.34 -3.57,2.69 -5.35,4.07 0,0 -0.82,57 18.15,128.35 6.29,18.09 12.57,36.84 18.46,56.05 29.11,73 81.33,149.31 175.03,190.96 0,0 -12.15,-18.58 -24.7,-46.88 -65.84,-71.99 -130.74,-177.16 -164.88,-322.23 0,0 -6.03,-3.77 -16.71,-10.32" /><path
         id="path108"
         style="fill:#244658;fill-opacity:1;fill-rule:nonzero;stroke:none"
         d="m 4400.11,4021.35 c -75.37,0 -154.62,19.93 -229.01,75.5 10.68,6.55 16.71,10.32 16.71,10.32 34.14,145.07 99.04,250.24 164.88,322.23 -29.38,-66.29 -60.89,-185.86 56.64,-244.63 78.26,-39.12 159.15,-49.56 223.15,-49.56 73.16,0 124.26,13.63 124.26,13.63 0,0 -165.94,-127.49 -356.63,-127.49" /><path
         id="path110"
         style="fill:#bfbdbb;fill-opacity:1;fill-rule:nonzero;stroke:none"
         d="m 4183.9,4229.27 c 4.78,17.99 10.83,36.92 18.46,56.05 -5.89,-19.21 -12.17,-37.96 -18.46,-56.05" /><path
         id="path112"
         style="fill:#bfbdbb;fill-opacity:1;fill-rule:nonzero;stroke:none"
         d="m 2121.24,3354.19 c 0,0 -323.45,27.95 -339.43,31.95 -15.97,3.99 -515.12,279.52 -543.07,335.42 -27.95,55.91 -207.64,439.25 -207.64,439.25 0,0 36.2,165.08 56.28,258.92 -1.25,-19.96 1.56,-39.5 7.43,-58.36 -3.63,-11.38 -6.87,-22.91 -9.7,-34.57 -49.89,-205.63 84.47,-420.18 229.06,-580.37 -13.86,61.71 -30.91,173.8 -41.38,372.72 -0.89,16.93 -1.32,33.73 -1.31,50.38 25.86,-14.93 46.53,-23.26 54.98,-23.25 2.67,0 4.12,0.83 4.12,2.56 0,23.95 47.92,259.55 47.92,259.55 l 55.91,-135.77 c 0,0 -1.05,-2.31 -2.85,-6.62 -23.25,6.57 -42.87,12.76 -56.54,17.26 -52.04,-220.39 -47.11,-457.08 -41.74,-557.63 48.23,-51.6 96.75,-96.94 139.17,-133.58 139.62,-120.58 492.23,-173.16 630.12,-189.59 6.79,191.33 25.04,499.24 60.15,732.79 18.68,40.35 35.01,73.61 48.45,99.97 l -8.74,-55.77 -8.2,-122.98 c -48.66,-301.9 -72.99,-702.28 -72.99,-702.28" /><path
         id="path114"
         style="fill:#244658;fill-opacity:1;fill-rule:nonzero;stroke:none"
         d="m 1314.17,3746.43 c -144.59,160.19 -278.95,374.74 -229.06,580.37 2.83,11.66 6.07,23.19 9.7,34.57 26.56,-85.31 115.92,-156.77 176.67,-191.84 -0.01,-16.65 0.42,-33.45 1.31,-50.38 10.47,-198.92 27.52,-311.01 41.38,-372.72" /><path
         id="path116"
         style="fill:#244658;fill-opacity:1;fill-rule:nonzero;stroke:none"
         d="m 2102.57,3402.46 c -137.89,16.43 -490.5,69.01 -630.12,189.59 -42.42,36.64 -90.94,81.98 -139.17,133.58 -5.37,100.55 -10.3,337.24 41.74,557.63 13.67,-4.5 33.29,-10.69 56.54,-17.26 -11.77,-28.19 -55.46,-141.57 -45.07,-248.94 8.2,-84.78 269.22,-242.61 468.86,-242.58 91.85,0.01 170.75,33.44 205.99,122.78 38.15,96.74 72.57,175.79 101.38,237.99 -35.11,-233.55 -53.36,-541.46 -60.15,-732.79" /><path
         id="path118"
         style="fill:#bfbdbb;fill-opacity:1;fill-rule:nonzero;stroke:none"
         d="m 2194.23,4056.47 8.2,122.98 8.74,55.77 c 26.56,52.12 41.84,77.33 41.84,77.33 -22.47,-60.25 -42.06,-152.34 -58.78,-256.08" /><path
         id="path120"
         style="fill:#bfbdbb;fill-opacity:1;fill-rule:nonzero;stroke:none"
         d="m 1087.38,4419.73 c 0.51,8.13 1.69,16.34 3.61,24.6 6.34,27.24 9.16,38.71 9.41,38.71 0.39,0 -5.04,-26.05 -13.02,-63.31" /><path
         id="path122"
         style="fill:#54a5c1;fill-opacity:1;fill-rule:nonzero;stroke:none"
         d="m 1861.68,5738.12 c 0,0 806.62,738.74 1066.18,846.56 259.56,107.81 606.96,151.74 850.55,119.79 243.58,-31.94 -363.38,291.51 -914.44,-15.97 -551.06,-307.47 -1062.19,-898.47 -1002.29,-950.38" /><path
         id="path124"
         style="fill:#54a5c1;fill-opacity:1;fill-rule:nonzero;stroke:none"
         d="m 3978.07,6676.52 c 0,-30.87 -25.03,-55.9 -55.91,-55.9 -30.87,0 -55.9,25.03 -55.9,55.9 0,30.88 25.03,55.91 55.9,55.91 30.88,0 55.91,-25.03 55.91,-55.91" /><path
         id="path126"
         style="fill:#54a5c1;fill-opacity:1;fill-rule:nonzero;stroke:none"
         d="m 5250.87,5226.9 c 31.21,-57.5 -61.22,-79.99 -161.37,-134.34 -100.14,-54.35 -170.09,-119.98 -201.29,-62.47 -31.21,57.5 24.68,148.18 124.82,202.53 100.15,54.35 206.63,51.79 237.84,-5.72" /><path
         id="path128"
         style="fill:#54a5c1;fill-opacity:1;fill-rule:nonzero;stroke:none"
         d="m 4834.5,4523.81 c 29.53,-60.6 -101.93,-73.87 -226.4,-134.5 -124.46,-60.63 -194.8,-145.65 -224.32,-85.04 -29.52,60.6 47.44,158.88 171.91,219.51 124.46,60.63 249.29,60.64 278.81,0.03" /><path
         id="path130"
         style="fill:#54a5c1;fill-opacity:1;fill-rule:nonzero;stroke:none"
         d="m 4167.08,4030.37 c 0,-22.79 -217.82,-258.23 -412.63,-258.23 -194.81,0 -455.22,280.7 -455.22,303.49 0,22.79 260.41,-220.96 455.22,-220.96 194.81,0 412.63,198.49 412.63,175.7" /><path
         id="path132"
         style="fill:#54a5c1;fill-opacity:1;fill-rule:nonzero;stroke:none"
         d="m 4960.51,6126.98 c -18.88,-9.91 -49.39,197.81 -84.92,265.51 -35.52,67.7 -75.17,118.85 -56.29,128.76 18.88,9.91 62.98,-36.94 98.5,-104.64 35.53,-67.7 61.58,-279.72 42.71,-289.63" /><path
         id="path134"
         style="fill:#54a5c1;fill-opacity:1;fill-rule:nonzero;stroke:none"
         d="m 5230.93,6044.6 c -19.93,-4.34 -69.4,177.32 -85.92,253.29 -16.52,75.96 -48.8,150.41 -28.86,154.74 19.93,4.34 49.48,-53.73 66,-129.69 16.52,-75.97 68.71,-274.01 48.78,-278.34" /><path
         id="path136"
         style="fill:#54a5c1;fill-opacity:1;fill-rule:nonzero;stroke:none"
         d="m 1063.04,4404.4 c 4,15.97 283.52,435.26 471.2,435.26 187.68,0 -131.78,-103.83 -283.52,-319.46 -151.74,-215.63 -187.68,-115.8 -187.68,-115.8" /><path
         id="path138"
         style="fill:#54a5c1;fill-opacity:1;fill-rule:nonzero;stroke:none"
         d="m 2129.22,4220.71 c 0,-13.23 -80.45,-23.96 -179.69,-23.96 -99.24,0 -179.69,10.73 -179.69,23.96 0,13.23 80.45,23.96 179.69,23.96 99.24,0 179.69,-10.73 179.69,-23.96" /><path
         id="path140"
         style="fill:#54a5c1;fill-opacity:1;fill-rule:nonzero;stroke:none"
         d="m 5979.99,5648.94 c 0,0 681.5,-457.88 958.36,-974.34 0,0 -553.72,638.91 -803.96,766.7 -250.24,127.78 -154.4,207.64 -154.4,207.64" /><path
         id="path142"
         style="fill:#54a5c1;fill-opacity:1;fill-rule:nonzero;stroke:none"
         d="m 4007.43,4819.35 c 3.18,-15.11 -145.17,-38.46 -327.52,-76.86 -182.35,-38.41 -329.66,-77.33 -332.84,-62.22 -3.18,15.1 138.96,78.52 321.32,116.92 182.35,38.41 335.86,37.27 339.04,22.16" /><path
         id="path144"
         style="fill:#54a5c1;fill-opacity:1;fill-rule:nonzero;stroke:none"
         d="m 3666.6,6310.48 c 0,0 117.13,109.15 127.78,106.48 10.65,-2.66 110.48,-166.38 114.47,-170.37 4,-3.99 -106.48,133.1 -122.45,130.44 -15.98,-2.66 -119.8,-66.55 -119.8,-66.55" /><path
         id="path146"
         style="fill:#54a5c1;fill-opacity:1;fill-rule:nonzero;stroke:none"
         d="m 3976.07,6163.4 c -0.65,-4.95 344.41,114.8 365.38,107.81 20.96,-6.98 35.94,-54.9 35.94,-54.9 0,0 -13.98,93.84 -51.91,92.84 -37.94,-1 -344.42,-107.82 -349.41,-145.75" /><path
         id="path148"
         style="fill:#54a5c1;fill-opacity:1;fill-rule:nonzero;stroke:none"
         d="m 4433.29,6071.55 c 0,0 65.89,15.98 71.88,11.98 5.99,-3.99 6.99,-34.94 6.99,-34.94 0,0 27.95,36.94 13.97,51.91 -13.97,14.98 -95.83,-12.97 -92.84,-28.95" /><path
         id="path150"
         style="fill:#54a5c1;fill-opacity:1;fill-rule:nonzero;stroke:none"
         d="m 4545.1,5588.38 c 0,0 -371.37,-243.59 -485.17,-317.46 -113.81,-73.87 455.22,195.67 485.17,317.46" /><path
         id="path152"
         style="fill:#244658;fill-opacity:1;fill-rule:nonzero;stroke:none"
         d="m 4399.11,6077.3 c -4.92,25.94 -14.29,69.57 -27.38,105.65 48.35,76.08 80.2,128.86 80.2,128.86 21.78,-68.64 -4.07,-151.36 -52.82,-234.51" /><path
         id="path154"
         style="fill:#9c9ea3;fill-opacity:1;fill-rule:nonzero;stroke:none"
         d="m 3989.91,5658.35 c -4.61,0.01 1.75,9.51 22.77,30.52 105.8,105.81 264.18,344.79 359.05,494.08 13.09,-36.08 22.46,-79.71 27.38,-105.65 -122,-208.11 -387.49,-418.98 -409.2,-418.95" /><path
         id="path156"
         style="fill:#244658;fill-opacity:1;fill-rule:nonzero;stroke:none"
         d="m 4435.55,5837.72 c -7.18,0 -9.73,2 -5.84,6.67 3.9,4.67 8.07,12.69 12.36,23 109.71,133.55 196.2,266.06 196.2,266.06 9.31,-97.32 -50.76,-195.68 -131,-280.78 -31.78,-8.7 -59.01,-14.95 -71.72,-14.95" /><path
         id="path158"
         style="fill:#9c9ea3;fill-opacity:1;fill-rule:nonzero;stroke:none"
         d="m 4165.8,5604.36 c -4.23,0 5.17,8.16 33.22,25.95 77.89,49.36 166.17,143.48 243.05,237.08 -4.29,-10.31 -8.46,-18.33 -12.36,-23 -3.89,-4.67 -1.34,-6.67 5.84,-6.67 12.71,0 39.94,6.25 71.72,14.95 -134.72,-142.88 -326.24,-248.33 -341.47,-248.31" /><path
         id="path160"
         style="fill:#19181a;fill-opacity:1;fill-rule:nonzero;stroke:none"
         d="m 5305.91,5548.71 c 195.66,-59.9 203.65,-223.62 203.65,-223.62 0,0 -11.98,267.55 -215.63,295.5 -203.66,27.95 -311.2,-96.23 -371.37,-211.64 0,0 187.68,199.66 383.35,139.76" /><path
         id="path162"
         style="fill:#19181a;fill-opacity:1;fill-rule:nonzero;stroke:none"
         d="m 5240.68,3542.8 c 0,0 420.62,74.54 500.48,447.24 79.87,372.7 0,569.69 0,569.69 0,0 0,-708.12 -452.56,-867.85 l 31.95,159.73 c 0,0 -244.92,-500.48 -580.35,-553.72 l 47.92,122.45 c 0,0 -362.05,-244.91 -617.61,-271.53 -255.56,-26.62 -921.1,399.32 -953.04,553.72 -31.95,154.4 21.3,500.48 21.3,521.78 0,19.58 36.12,156.21 203.36,298.12 -138.95,-153.54 -96.88,-287.48 -96.88,-287.48 l -43.92,91.85 c 0,0 -47.92,-67.89 0,-179.7 47.91,-111.81 351.4,-259.55 443.24,-259.55 91.84,0 443.24,219.62 443.24,219.62 63.89,271.54 235.6,403.31 319.46,439.25 83.86,35.94 387.34,75.87 387.34,75.87 l -147.75,23.96 c 0,291.5 47.92,487.17 219.62,606.97 171.71,119.79 519.12,-11.98 519.12,-11.98 0,0 -203.65,255.56 -555.05,91.84 -351.4,-163.72 -307.48,-690.82 -307.48,-690.82 h -103.82 c -323.45,-119.8 -367.38,-415.29 -407.31,-455.22 -39.93,-39.94 -335.42,-239.6 -431.26,-207.65 -95.84,31.95 -271.54,99.83 -299.49,187.68 -25.54,80.28 62.25,327.17 77.57,369.14 9.7,7.84 19.71,15.69 30.25,23.52 l -27.96,-17.3 c 0,0 -278.19,-177.03 -307.47,-334.1 -29.28,-157.06 -55.91,-460.55 -15.98,-593.65 39.94,-133.11 700.14,-625.6 1046.22,-588.33 0,0 290.17,42.59 497.82,186.35 0,0 308.8,-53.24 559.04,330.1" /><path
         id="path164"
         style="fill:#19181a;fill-opacity:1;fill-rule:nonzero;stroke:none"
         d="m 5870.24,5380.48 c 1.81,-9.9 2.7,-15.45 2.7,-15.45 0,0 6.34,-12.67 -2.7,15.45" /><path
         id="path166"
         style="fill:#19181a;fill-opacity:1;fill-rule:nonzero;stroke:none"
         d="m 4922.56,6095.78 c 35.94,87.85 -131.78,433.48 -131.78,433.48 0,0 39.94,-237.82 39.94,-353.62 0,-115.8 -423.28,-431.26 -423.28,-431.26 0,0 479.18,263.55 515.12,351.4" /><path
         id="path168"
         style="fill:#19181a;fill-opacity:1;fill-rule:nonzero;stroke:none"
         d="m 3787.16,5387.84 c 0,0 -348.74,-234.45 -535.08,-255.75 -186.35,-21.3 268.87,-82.15 535.08,255.75" /><path
         id="path170"
         style="fill:#19181a;fill-opacity:1;fill-rule:nonzero;stroke:none"
         d="m 2282.79,2720.94 2.24,0.13 v 41.84 l -2.24,-41.97" /><path
         id="path172"
         style="fill:#19181a;fill-opacity:1;fill-rule:nonzero;stroke:none"
         d="m 3793.42,6459.81 c 0,0 -95.68,-49.49 -146.91,-159.89 l 140.41,102.79 c 0,0 122.4,-125.08 155.18,-218.77 0,0 -35.87,163.48 -148.68,275.87" /><path
         id="path174"
         style="fill:#19181a;fill-opacity:1;fill-rule:nonzero;stroke:none"
         d="m 2906,5443.56 c 311.47,-45.26 532.42,149.08 532.42,149.08 C 3222.79,5462.19 2906,5443.56 2906,5443.56" /><path
         id="path176"
         style="fill:#19181a;fill-opacity:1;fill-rule:nonzero;stroke:none"
         d="m 3213.48,6163.66 c -59.63,-39.75 -105.3,-18.31 -155.65,32.05 0,0 18.33,17.87 47.64,42.54 -0.43,-1.72 -0.72,-3.49 -0.72,-5.35 0,-12.32 9.99,-22.31 22.32,-22.31 12.32,0 22.31,9.99 22.31,22.31 0,12.33 -9.99,22.32 -22.31,22.32 l -1.05,-0.1 c 35.36,28.41 80.96,61.64 128.66,87.08 0,0 20.6,-137.34 -41.2,-178.54 z m -251.58,-9.31 89.06,11.6 c 100.71,-103 191.13,-17.17 191.13,-17.17 86.98,75.54 35.48,243.78 35.48,243.78 -139.63,-68.67 -306.51,-231.35 -315.67,-238.21" /><path
         id="path178"
         style="fill:#19181a;fill-opacity:1;fill-rule:nonzero;stroke:none"
         d="m 2295.04,5712.95 c -60.72,-10.62 -156.35,-91.07 -156.35,-91.07 163.94,94.11 220.11,77.41 229.21,51.61 9.11,-25.81 -72.86,-47.06 -72.86,-47.06 40.99,-7.59 122.96,31.88 113.85,56.16 -9.11,24.29 -53.13,40.99 -113.85,30.36" /><path
         id="path180"
         style="fill:#19181a;fill-opacity:1;fill-rule:nonzero;stroke:none"
         d="M 5065.99,2762.91 H 2285.03 v -82.64 h 2822.55 v 82.64 h -41.59" /><path
         id="path182"
         style="fill:#19181a;fill-opacity:1;fill-rule:nonzero;stroke:none"
         d="m 3502.89,6055.66 -19.29,-250.73 -194.29,115.5 10.02,6.25 z m 275.44,174.52 v -233.55 l -219.71,94.34 z m 31.95,-210.52 v 197.53 c 31.46,-30.65 75.63,-98.46 0,-197.53 z m -294.34,-210.83 19.78,257.21 227.15,-97.54 c -51.7,-47.63 -130.24,-101 -246.93,-159.67 z m -711.29,-266.34 17.27,72.51 92.76,-38.65 c -35.34,-11.17 -72.08,-22.46 -110.03,-33.86 z m -80.34,25.38 62.89,39.24 -14.26,-59.87 z m 234.21,24.81 -116.6,48.58 143.48,89.53 z m 220.92,73.56 c -57.36,-21.08 -119.6,-42.66 -186.66,-64.71 l 27.95,143.57 z m 91.16,228.16 189.44,-112.63 c -62.48,-29.31 -134.29,-59.84 -216.82,-91.56 z m -60.11,-207.92 -164.84,81.91 191.87,119.72 z M 2227.16,4402.67 c -78.89,-170.94 -114.47,-715.05 -124.59,-1000.21 -137.89,16.43 -490.5,69.01 -630.12,189.59 -42.42,36.64 -90.94,81.98 -139.17,133.58 -5.37,100.55 -10.3,337.24 41.74,557.63 65.53,-21.56 267.5,-81.95 351.66,-37.66 101.16,53.24 432.6,37.27 432.6,37.27 0,0 65.22,242.26 153.07,330.11 33.13,33.13 74.97,58.3 114.24,76.81 -72.64,-83.19 -153.85,-188.35 -199.43,-287.12 z M 1085.11,4326.8 c 68.65,282.99 383.34,487.17 383.34,487.17 0,0 -215.63,-315.47 -195.66,-694.82 10.47,-198.92 27.52,-311.01 41.38,-372.72 -144.59,160.19 -278.95,374.74 -229.06,580.37 z M 6209.7,5648.54 c -186,121.74 -402.05,219.23 -515.17,266.87 -40.72,85.96 -89.84,174.63 -149.03,260.23 -209.41,302.84 -330.39,319.75 -369.35,314.98 -5.23,6.81 -10,12.45 -14,16.46 -32.77,32.77 -92.92,22.5 -130.49,11.59 -29.76,37.02 -65.72,60.28 -109.1,60.28 0,0 -91.84,163.72 -342.08,206.32 -250.24,42.59 -388.67,79.86 -388.67,79.86 0,0 -516.45,212.97 -819.94,127.78 -303.48,-85.18 -968.98,-130.15 -1695.77,-1461.17 0,0 351.4,-164.72 990.31,0 l 24.8,15.48 84.48,-35.85 c 2.46,-7.41 5.42,-16.36 8.7,-26.38 -5.28,-2.76 -6.17,-30.78 -6.17,-30.78 0,0 -21.93,-42.04 1.58,-102.23 l -0.03,0.05 c 0,0 -65.19,-57.4 -135.43,-187.99 -43.67,-81.21 -126.28,-225.24 -149.48,-317.39 -45.1,-17.71 -59.88,-26.48 -219.78,-143.16 -197,-143.76 -175.7,-346.08 -175.7,-346.08 0,0 -212.97,15.97 -367.38,-47.92 -154.4,-63.89 -335.42,53.25 -335.42,53.25 95.83,307.47 291.5,602.97 291.5,602.97 l -195.67,-87.85 c 0,0 -547.062,-347.41 -547.062,-618.95 0,-271.53 279.522,-734.74 650.892,-854.54 371.36,-119.79 504.3,-67.53 504.3,-67.53 l 0.02,0.02 c -0.78,-31.15 -1.18,-57.27 -1.18,-76.24 0,-175.7 126.45,-239.6 182.35,-343.42 l 8.55,-55.5 -5.25,-98.79 h 66.36 c 3.1,36.66 3.69,95.44 -13.62,157.52 66,4.38 187.05,33.81 318.55,171.54 13.93,14.59 25.47,27.57 35.23,39.32 85.74,-215.82 287.92,-318.97 465.19,-368.38 h 204.09 c -195.5,84.34 -580.98,276.28 -612.66,490.12 -42.6,287.51 197.76,1306.7 197.76,1306.7 0,0 -351.4,-681.5 -292.83,-1267.17 2.65,-26.5 6.78,-51.74 12.18,-75.86 -31,-40 -145.07,-178.49 -278.5,-232.88 -13.92,-5.67 -37.71,-20.05 -58.75,-33.48 -10.22,25.92 -152.78,220.38 -152.78,334.24 0,159.72 35.17,740.47 75.1,956.1 39.93,215.63 306.14,495.15 306.14,495.15 l 7.45,41.51 28.83,87.62 c 145.18,411.24 248.03,401.11 248.03,401.11 l -0.29,0.4 c 40.32,-38.4 102.02,-79.09 195.94,-118.41 0,0 -149.56,120.83 -209.45,225.75 5.53,36.4 13.8,101.02 13.8,101.02 0,0 1382.95,405.32 1007.59,780.68 l -72.64,77.6 c 0,0 -1053.44,-716.51 -1125.31,-748.46 -71.88,-31.95 -602.97,-115.8 -874.51,-19.97 0,0 648.23,1268.51 1643.86,1364.34 0,0 276.86,63.89 729.42,-117.13 0,0 341.34,-111.6 457.89,-90.51 98.37,17.79 277.21,-151.84 349.82,-243.61 49.13,-149.96 129.36,-417.94 89.43,-457.86 -55.91,-55.91 -639.91,-463.54 -663.54,-487.17 -23.62,-23.63 779.34,379.35 779.34,487.17 0,76.93 -24.45,328.63 -108.06,466.56 38.26,-20.45 85.97,-60.02 108.06,-135.13 39.93,-135.77 87.85,-291.5 53.91,-371.36 -33.94,-79.87 -513.13,-395.33 -513.13,-395.33 0,0 602.98,255.56 634.92,423.28 17.9,93.97 -23.75,223.65 -72.62,328.32 132.59,-118.97 387.71,-372.82 491.91,-647.78 75.02,-197.97 103.23,-277.29 113.1,-307.99 -9.94,54.29 -49.62,247.25 -146.33,470.23 1512.99,-798.34 1502.72,-1963.16 1502.72,-1963.16 -206.98,206.98 -367.37,235.59 -367.37,235.59 l -79.87,351.4 -117.13,-298.15 c -162.39,162.39 -457.89,69.21 -457.89,69.21 l -37.27,271.54 -129.01,-207.35 -78.63,697.18 c 0,0 85.81,-1067.51 -143.76,-1368.34 -102.6,-134.45 -266.21,-282.18 -383.34,-399.31 -117.14,-117.13 -335.43,-276.86 -362.05,-394 -7.46,-32.8 -7.68,-59.99 -4.32,-82.41 h 41.59 v -82.64 l 69.21,207.65 c 0,0 420.62,367.37 670.86,617.61 181.46,181.46 200.52,516.74 197.3,687.43 l 84.88,169.78 -21.29,-212.97 c 409.96,117.13 617.61,-101.16 617.61,-101.16 l 31.94,212.97 31.95,-197 c 223.62,-47.92 399.32,-303.48 420.62,-303.48 21.29,0 101.16,82.52 101.16,82.52 85.18,726.76 -736.08,1565.33 -1102.12,1804.92" /><path
         id="path184"
         style="fill:#19181a;fill-opacity:1;fill-rule:nonzero;stroke:none"
         d="m 1950.82,2154.05 c 18.36,-6.09 35.43,-13.68 51.17,-22.76 3.64,7.57 7.28,15.13 10.91,22.65 z M 1322.14,987.02 H 682.031 l 55.559,218.07 c 21.148,83.01 43.226,168.58 67.5,261.59 l 34.105,130.69 332.835,0.09 c -42.88,12.37 -79.91,34.11 -110.4,64.89 -45.04,45.49 -69.192,108.13 -68.021,176.41 0.817,48.33 15.001,99.21 44.631,160.09 69.79,143.54 152.18,313.53 234.07,485.78 40.69,85.55 101.91,154.19 181.97,204.03 79.16,49.27 176.05,74.25 287.98,74.25 h 1812.56 l -68.11,-149.56 c 16.21,24.07 32.35,48.09 48.42,72.06 l 51.95,77.5 h 673.6 l -49.71,-214.39 c -6.1,-26.32 -12.3,-52.74 -18.62,-79.35 29.32,64.04 57.93,127.33 85.92,190.09 l 46.21,103.65 h 752.6 c 96.61,0 173.94,-20.2 231.1,-60.24 l 26.38,60.24 H 6710.57 L 6505.35,2484.3 c -150.47,-204.25 -312.77,-417.41 -482.64,-633.84 -54.26,-236.87 -115.69,-483.64 -182.66,-733.78 L 5805.32,987.02 H 1438.1 l 3.48,6.992 c -34.32,-4.711 -70.81,-7.043 -109.65,-7.043 -3.28,0 -6.54,0.019 -9.79,0.051" /><path
         id="path186"
         style="fill:#ffffff;fill-opacity:1;fill-rule:nonzero;stroke:none"
         d="m 4571.89,1931.49 h -4.07 c 52.33,108.94 103.03,216.27 151.48,320.72 h 5.11 c -49.12,-105.14 -100.24,-212.62 -152.52,-320.72 z m 302.05,-353.19 c -40.48,-80.06 -82.19,-161.45 -124.98,-244.05 8.4,68.59 16.31,134.94 23.79,199.66 36.16,8.66 70,23.51 101.19,44.39 z m -3098.46,663.51 376.2,-0.67 c -42.23,-88.45 -84.77,-176.74 -127.45,-264.68 -5.08,15.7 -12.92,30.15 -23.64,43.27 -35.83,43.87 -93.46,65.25 -176.17,65.38 l -124.05,0.21 c 25.85,53.62 50.71,105.42 75.11,156.49 z m 4195.46,433.66 -26.16,-36.64 c -28.73,-40.24 -57.9,-80.83 -87.47,-121.72 5.28,12.05 10.51,24.06 15.72,36.04 l 53.2,122.32 h -534.49 l -22.93,-52.37 c -13.95,-31.84 -28.12,-63.86 -42.42,-95.99 -5.33,24.06 -14.74,43.68 -24.82,59.07 -58.52,89.29 -183.44,89.29 -224.49,89.29 h -695.84 l -23.11,-51.83 c -142.02,-318.47 -299.09,-649.12 -484.24,-1018.92 95.56,335.58 178.32,646.22 251.89,963.55 l 24.86,107.2 h -516.9 l -25.98,-38.75 c -211.77,-315.91 -432.71,-636.29 -659.67,-957.06 134.52,273.52 277.68,571.67 414.5,872.12 l 56.33,123.69 H 2355.63 l -23.47,-50.73 c -17.98,-38.87 -36.12,-77.78 -54.32,-116.7 4.84,20.1 9.61,40.07 14.29,59.8 l 25.54,107.63 h -575.41 c -95.34,0 -176.69,-20.54 -241.77,-61.05 -65.63,-40.85 -115.83,-97.15 -149.2,-167.34 -82.19,-172.86 -164.63,-342.95 -234.42,-486.5 -23.85,-48.99 -35.24,-88.18 -35.83,-123.31 -0.98,-57.06 22.67,-93.14 42.71,-113.38 25.24,-25.47 58.05,-41.61 97.51,-47.95 25.4,-4.09 53.14,-6.17 82.46,-6.19 l 97.57,-0.07 c -26.13,-53.22 -52.29,-106.42 -78.48,-159.62 l -416.056,-0.12 -17.055,-65.34 c -24.094,-92.33 -46.133,-177.74 -67.371,-261.1 l -27.781,-109.03 h 528.043 c 3.1,-0.04 6.21,-0.05 9.34,-0.05 107.48,0 192.66,19.59 260.41,59.89 8.63,5.14 16.84,10.67 24.83,16.37 l -37.91,-76.21 h 1490.93 l 26.06,37.97 c 37.79,55.09 60.56,88.4 92.56,135.5 l 62.54,0.03 c -5.85,-17.4 -58.47,-173.5 -58.47,-173.5 h 944.13 l 24.48,47.19 c 16.46,31.76 32.88,63.52 49.22,95.24 -2.12,-13.73 -22.09,-142.43 -22.09,-142.43 h 965.84 l 24.62,46.64 c 14.8,28.06 29.54,56.11 44.2,84.12 -1.81,-6.07 -39.16,-130.76 -39.16,-130.76 h 554.1 l 17.36,64.82 c 68.51,255.9 131.15,508.04 186.25,749.76 173.72,221.02 339.55,438.65 493.11,647.11 l 102.61,139.31 h -566.61" /><path
         id="path188"
         style="fill:#254d66;fill-opacity:1;fill-rule:nonzero;stroke:none"
         d="m 907.063,1161.92 c 22.156,86.93 44.589,173.78 67.246,260.59 121.111,0.04 242.211,0.08 363.321,0.12 26.39,0.01 44.43,9.82 54.13,29.52 43.12,87.54 86.17,175.12 129.11,262.75 9.82,20.04 11.05,32.08 3.69,36.11 -7.36,4.01 -22.69,6.04 -45.99,6.05 -69.92,0.06 -104.88,0.08 -174.79,0.13 -24.87,0.02 -47.78,1.73 -68.62,5.08 -20.9,3.36 -37.35,11.11 -49.3,23.17 -11.97,12.08 -17.75,28.88 -17.39,50.34 0.36,21.42 9.4,50.33 27.02,86.53 78.82,162.13 157.36,324.4 234.77,487.22 26.28,55.29 64.96,98.61 116.43,130.65 51.45,32.02 116.56,47.84 195.57,47.84 154.93,0 309.86,0 464.79,0 -20.55,-86.62 -41.68,-173.06 -63.29,-259.43 -127.18,0.23 -254.36,0.46 -381.53,0.69 -27.92,0.06 -46.83,-10.34 -56.8,-31.24 -41.71,-87.42 -83.71,-174.7 -125.93,-261.87 -7.12,-14.71 -7.68,-24.73 -1.75,-30.07 5.92,-5.32 17.44,-8.05 34.55,-8.08 84.79,-0.14 127.18,-0.21 211.97,-0.35 54.34,-0.09 90.56,-11.17 108.6,-33.26 18.02,-22.07 13.74,-60.56 -13.02,-115.39 -77.53,-158.61 -155.54,-316.99 -233.81,-475.25 -30.8,-65.38 -76.92,-127.73 -138.4,-164.3 -65.32,-38.85 -148.22,-48.39 -224.59,-47.55 -138.66,0 -277.32,0 -415.987,0" /><path
         id="path190"
         style="fill:#254d66;fill-opacity:1;fill-rule:nonzero;stroke:none"
         d="m 2591.9,1161.92 c -114.65,0 -229.3,0 -343.94,0 94.96,189.12 189.37,378.52 282.86,568.37 -73.64,0.05 -110.47,0.07 -184.11,0.12 -93.42,-189.85 -187.66,-379.28 -282.35,-568.49 -114.65,0 -229.3,0 -343.95,0 235.24,473.01 469.29,946.62 691.12,1426.1 114.64,0 229.29,0 343.94,0 -93.51,-203.47 -189.41,-405.76 -286.74,-607.43 73.61,-0.12 110.42,-0.18 184.04,-0.29 97.28,201.72 193.03,404.11 286.3,607.72 114.64,0 229.29,0 343.94,0 -218.98,-480.86 -452.91,-954.53 -691.11,-1426.1" /><path
         id="path192"
         style="fill:#254d66;fill-opacity:1;fill-rule:nonzero;stroke:none"
         d="m 3293.13,1561.06 c 62.45,0 93.68,0 156.13,0 58.98,170.04 116.9,340.41 173.26,511.33 -108.69,-171.16 -218.51,-341.57 -329.39,-511.33 z m -150.65,-225.69 c -47.51,-70.03 -71.23,-104.78 -118.34,-173.45 -113.1,0 -226.2,0 -339.3,0 340.48,469.32 672.7,944.48 995.55,1426.1 120.07,0 240.14,0 360.22,0 -111.31,-480.08 -246.9,-953.66 -386.68,-1426.1 -113.1,0 -226.2,0 -339.3,0 23.19,68.76 34.88,103.52 58.3,173.53 -76.82,-0.03 -153.63,-0.06 -230.45,-0.08" /><path
         id="path194"
         style="fill:#254d66;fill-opacity:1;fill-rule:nonzero;stroke:none"
         d="m 4663.44,2339.76 c -76.55,-166.04 -154.97,-331.14 -234.94,-495.55 66.18,-0.08 99.27,-0.12 165.45,-0.19 21.73,-0.02 37.48,9.89 47.14,29.74 70.15,144.76 139.06,290.05 206.53,436.08 9.06,19.73 2.68,29.59 -19.01,29.62 -66.07,0.12 -99.1,0.18 -165.17,0.3 z m 244.73,-601.11 c -15.66,-31.65 -42.93,-60.63 -81.7,-86.94 -38.8,-26.31 -83.09,-39.44 -132.79,-39.43 -16.97,-150.26 -35.26,-300.37 -54.41,-450.36 -116.19,0 -232.39,0 -348.58,0 23.28,150.02 45.93,300.14 67.42,450.42 -17.71,0.01 -26.57,0.01 -44.28,0.01 -75.68,-150.65 -152.37,-300.76 -229.98,-450.43 -112.32,0 -224.64,0 -336.97,0 242.08,469.71 475.86,943.43 691.11,1426.1 213.03,0 426.06,0 639.09,0 79.01,0 129.55,-16.52 151.34,-49.77 21.78,-33.23 20.22,-78.04 -5.16,-134.42 -101.36,-223.51 -206.67,-445.02 -315.09,-665.18" /><path
         id="path196"
         style="fill:#254d66;fill-opacity:1;fill-rule:nonzero;stroke:none"
         d="m 5563.67,1973.63 c 153.55,202.79 304.48,407.37 452.28,614.39 116.19,0 232.39,0 348.58,0 -164.23,-222.95 -332.34,-442.8 -503.6,-660.39 -58.2,-256.56 -121.78,-511.59 -189.83,-765.71 -123.16,0 -246.33,0 -369.5,0 58.15,194.11 114.09,388.76 167.47,584.25 -27.03,0.02 -40.55,0.03 -67.58,0.04 -97.58,-195.99 -197.59,-390.65 -299.75,-584.29 -114.65,0 -229.3,0 -343.95,0 245.44,468.12 479.07,941.85 691.12,1426.1 114.64,0 229.29,0 343.94,0 -89.81,-206.5 -183.52,-411.05 -280.43,-614.31 20.5,-0.03 30.75,-0.05 51.25,-0.08" /></g></g></svg>